<?xml version="1.0" encoding="UTF-8"?>
<svg width="68px" height="63px" viewBox="0 0 68 63" version="1.1" xmlns="http://www.w3.org/2000/svg" xmlns:xlink="http://www.w3.org/1999/xlink">
    <!-- Generator: Sketch 46.2 (44496) - http://www.bohemiancoding.com/sketch -->
    <title>Group 4</title>
    <desc>Created with Sketch.</desc>
    <defs>
        <polygon id="path-1" points="30.8615947 0.250697674 0.333289852 0.250697674 0.333289852 29.9833416 30.8615947 29.9833416 30.8615947 0.250697674"></polygon>
    </defs>
    <g id="Concept-2---navy" stroke="none" stroke-width="1" fill="none" fill-rule="evenodd">
        <g id="NEWS" transform="translate(-686.000000, -2468.000000)">
            <g id="Group-4" transform="translate(550.000000, 2468.000000)">
                <g id="Group-9" transform="translate(154.000000, 0.000000)">
                    <mask id="mask-2" fill="white">
                        <use xlink:href="#path-1"></use>
                    </mask>
                    <g id="Clip-2"></g>
                    <path d="M12.429903,0.250597395 C12.4597778,0.283689488 12.4898615,0.317282977 12.5193185,0.350124372 C12.6241937,0.693580186 12.7292778,1.037036 12.8335263,1.37999042 C13.106369,2.30606763 13.3790028,3.23289693 13.6518455,4.15897414 C14.3646627,6.60904251 15.0781066,9.05886019 15.7909238,11.5081765 C16.0376522,12.3512727 16.2843805,13.1946197 16.5311088,14.0374653 C16.5536716,14.10741 16.7780461,14.7140983 16.7780461,14.7140983 C16.9393283,14.5661867 17.0053454,14.226742 17.0692733,14.0056267 C17.2610571,13.3984369 17.4534676,12.7909965 17.6452513,12.1838067 C18.6202566,9.07039228 19.5958885,5.95672716 20.5708938,2.84331274 C20.7643489,2.22083042 20.957595,1.59884949 21.1508412,0.975865767 C21.1949222,0.838232744 21.2413013,0.57675507 21.349728,0.488008093 C21.4161629,0.432854605 21.5281413,0.483746233 21.5895622,0.518593209 C21.7293262,0.649958791 21.8697169,0.781073674 22.0096898,0.91193786 C22.4254302,1.22656344 22.8748059,1.33035228 23.3960482,1.39904344 C23.4654079,1.40806856 23.5433331,1.41709367 23.5922192,1.47350065 C23.7766909,1.68634298 23.2554486,1.82297321 23.1731362,1.84704019 C22.8944439,1.92600995 22.4097616,2.04308577 22.2050251,2.27447972 C22.0226425,2.47879833 21.8993828,3.03208809 21.8089227,3.31738205 C21.5076676,4.21362623 21.2068303,5.11037181 20.9055752,6.006616 C19.9815452,8.7550146 19.0573063,11.5034132 18.1326495,14.2513104 C17.9314646,14.8467174 17.7300707,15.4418737 17.5286769,16.0372807 C17.4599439,16.2348304 17.3185086,16.498063 17.3220602,16.7272007 C17.3260295,17.015503 17.5593873,17.6377346 17.6477583,17.9328058 C17.9617572,19.009803 18.2765918,20.0870509 18.5907996,21.1635467 C18.9488795,22.3907118 19.3075862,23.6178769 19.665875,24.84429 C19.7463072,25.1255727 19.8271572,25.4066048 19.9075894,25.6876369 C19.9765313,25.9370811 20.0354452,26.2181132 20.1474235,26.4437411 C20.1633011,26.4765825 20.1933848,26.5304825 20.2307805,26.5304825 C20.4940131,25.995243 20.6828721,25.1937625 20.8587783,24.5948458 C21.2592679,23.2917193 21.6605932,21.9885927 22.0610828,20.6854662 C23.4033602,16.2859727 24.7462644,11.8864793 26.0883329,7.48723647 C26.6430016,5.65889833 27.1974614,3.83056019 27.7519212,2.00172065 C27.9052647,1.50834763 28.0586081,1.0149746 28.2119515,0.521601581 C28.2528988,0.431099721 28.2944729,0.341099256 28.3354202,0.250597395 C28.6097253,0.32981786 28.6920377,0.622883442 28.9003257,0.836227163 C29.3908576,1.33812391 29.9743565,1.40155042 30.6852935,1.40155042 C30.7212269,1.41057553 30.7577869,1.41960065 30.7937203,1.42862577 C31.0784711,1.608376 30.3790245,1.85957507 30.3180213,1.88339135 C29.9380054,2.02979879 29.2460797,2.31283647 28.9772063,2.66932856 C28.7845869,2.92428809 28.6561043,3.505656 28.5547807,3.83532344 C28.1586783,5.03892298 27.7625759,6.2432746 27.3662645,7.44712484 C25.4325494,13.2821132 23.4988343,19.1171016 21.5647013,24.9515886 C21.0135842,26.5971681 20.462467,28.2424969 19.9111409,29.8875751 C19.9055002,29.8940932 19.9004863,29.9006113 19.8950545,29.9066281 C19.7162234,29.7634797 19.3650377,28.5922202 19.2547307,28.2966476 C18.2855751,25.5918704 17.3164195,22.8870932 16.3472638,20.1818146 C16.3217762,20.1482211 16.2964976,20.1146276 16.2703832,20.0810341 C16.2344499,20.0632346 16.2003968,20.0995858 16.1799231,20.1301709 C16.0322204,20.3495313 15.8523448,20.9815402 15.7654362,21.2678369 C14.7812387,24.1729216 13.797668,27.0785076 12.8136794,29.9833416 L12.7817154,29.9833416 L12.7817154,29.9642886 C12.665141,29.7742597 12.6058092,29.5230607 12.530391,29.3097169 C12.4000282,28.9396872 12.2694564,28.5704095 12.1393025,28.2006304 C11.5936171,26.642043 11.0481407,25.0834555 10.5026642,23.5243667 C8.52298783,17.8510783 6.54331146,12.17779 4.56363509,6.50475228 C4.25945518,5.63533274 3.95527527,4.766916 3.65046862,3.89774716 C3.47811394,3.39359414 3.35464531,2.78866065 2.97713631,2.42665321 C2.54342925,2.01074577 1.73409343,1.89717972 1.14370028,1.86433833 C0.924966516,1.85180344 0.61117653,1.9212467 0.435897037,1.80141321 C0.375520668,1.76004809 0.329559418,1.68208112 0.333528799,1.59458763 C0.338542754,1.47224716 0.434434634,1.41057553 0.521343178,1.38650856 C0.799617654,1.30804019 1.12176423,1.40681507 1.40003871,1.43389042 C2.09676947,1.49982391 2.78117426,1.53592437 3.49420037,1.53592437 C3.53661007,1.52915553 3.5794376,1.52338949 3.62205621,1.51662065 C3.65402017,1.51010251 3.68598413,1.50408577 3.71794809,1.49756763 C3.79796245,1.48478205 3.87776789,1.47224716 3.95778225,1.45896019 C4.09211445,1.38400158 4.29392612,1.32483693 4.45311917,1.32483693 C4.66412309,1.14909786 4.91837237,1.02801088 5.13961311,0.863302512 C5.30737167,0.708622047 5.47533915,0.554693674 5.64309771,0.400013209 C5.65667717,0.394999256 5.67067446,0.390236 5.68404501,0.384971349 C5.81252759,0.64569693 5.88188729,0.972857395 5.96043925,1.26492019 C6.0728354,1.66102251 6.18523154,2.05787693 6.29700094,2.45422995 C6.65466303,3.7322867 7.01253404,5.01034344 7.36998721,6.28814949 C8.68782159,10.9962518 10.005656,15.7046048 11.3228636,20.4124565 C11.7256513,21.8584807 12.1286479,23.3050062 12.5314355,24.7507797 C12.6511437,25.1777179 12.7716875,25.6051574 12.8916046,26.0318448 C12.9350589,26.1654667 12.9783042,26.2998407 13.0217585,26.4334625 C13.0413965,26.4730727 13.0704357,26.5304825 13.1172326,26.5304825 C13.3925822,25.9456048 13.5469703,25.2476625 13.7491998,24.6171579 C14.1753859,23.2485993 14.6013631,21.880542 15.0275492,20.5119834 C15.1852799,20.0055741 15.3432195,19.4996662 15.501159,18.9930062 C15.5586106,18.7924481 15.6670374,18.5866253 15.6670374,18.3582397 C15.6670374,18.0674304 15.4900865,17.748543 15.3992086,17.498096 C15.1219787,16.7181755 14.8447488,15.9382551 14.5675189,15.1583346 C13.3240582,11.6648625 12.0808064,8.17164112 10.8373457,4.67816902 C10.6560076,4.1735146 10.4746696,3.66860949 10.2933316,3.16345367 C10.2039161,2.91751926 10.1410327,2.60464856 9.97724356,2.40810158 C9.65447023,2.02077367 9.26129263,1.92475647 8.78517587,1.91648344 C8.63245917,1.91347507 8.45801534,1.83676158 8.45509053,1.63068809 C8.45258355,1.48377926 8.57354521,1.38826344 8.67695802,1.36269228 C8.8576693,1.31656391 9.06094337,1.4038067 9.23329806,1.43088205 C9.68350939,1.500576 10.1230661,1.53592437 10.5916619,1.53592437 C10.6395034,1.52915553 10.6875538,1.52338949 10.7353953,1.51662065 C10.7673592,1.51010251 10.7995321,1.50408577 10.8312871,1.49756763 C10.8688918,1.48478205 10.9062875,1.47224716 10.9432655,1.45896019 C11.5202881,1.34714902 12.0388145,0.78583693 12.429903,0.250597395" id="Fill-1" fill="#CABEC7" mask="url(#mask-2)"></path>
                </g>
                <text id="LOADING" font-family="BrandonText-Medium, Brandon Text" font-size="12" font-weight="400" line-spacing="30" letter-spacing="2.5" fill="#CABEC7">
                    <tspan x="135.752" y="55.40625">LOADIN</tspan>
                    <tspan x="195.536" y="55.40625">G</tspan>
                </text>
            </g>
        </g>
    </g>
</svg>