<?xml version="1.0" encoding="UTF-8"?>
<svg width="397px" height="322px" viewBox="0 0 397 322" version="1.1" xmlns="http://www.w3.org/2000/svg" xmlns:xlink="http://www.w3.org/1999/xlink">
    <!-- Generator: Sketch 46.2 (44496) - http://www.bohemiancoding.com/sketch -->
    <title>Group</title>
    <desc>Created with Sketch.</desc>
    <defs>
        <polygon id="path-1" points="396.514351 0.0948121258 0.393913962 0.0948121258 0.393913962 321.819746 396.514351 321.819746 396.514351 0.0948121258"></polygon>
    </defs>
    <g id="Concept-2---navy" stroke="none" stroke-width="1" fill="none" fill-rule="evenodd" opacity="0.3">
        <g id="ABOUT" transform="translate(-521.000000, -295.000000)">
            <g id="Group" transform="translate(521.000000, 295.000000)">
                <mask id="mask-2" fill="white">
                    <use xlink:href="#path-1"></use>
                </mask>
                <g id="Clip-2"></g>
                <path d="M157.353683,0.0937270465 C157.741324,0.451803223 158.131676,0.815304796 158.513895,1.17066827 C159.874705,4.88706495 161.238226,8.60346163 162.590903,12.3144329 C166.131177,22.3351404 169.66874,32.3639861 173.209015,42.3846936 C182.458184,68.8958941 191.715486,95.404382 200.964655,121.907444 C204.166082,131.030249 207.367509,140.155766 210.568936,149.275858 C210.8617,150.0327 213.773074,156.59743 213.773074,156.59743 C215.865793,154.996938 216.722398,151.323945 217.551896,148.931345 C220.040389,142.36119 222.537014,135.788322 225.025507,129.218166 C237.676701,95.5291661 250.336027,61.8374532 262.987221,28.1484529 C265.4974,21.412823 268.004868,14.6826185 270.512336,7.94156324 C271.08431,6.45229187 271.686102,3.62294754 273.092995,2.66265234 C273.955022,2.06585871 275.407998,2.61653647 276.204967,2.99360153 C278.018476,4.41505545 279.840118,5.83379666 281.656338,7.24982517 C287.050783,10.6542615 292.881663,11.7773186 299.645051,12.520598 C300.545029,12.6182551 301.556148,12.7159123 302.19047,13.3262694 C304.584086,15.6293502 297.820698,17.1077708 296.752652,17.3681899 C293.136476,18.2226898 286.847475,19.4895199 284.190914,21.9933405 C281.824406,24.2041896 280.225048,30.1911147 279.051282,33.2781654 C275.142342,42.9760618 271.238824,52.6793837 267.329884,62.3772801 C255.34012,92.1165916 243.347645,121.855903 231.349748,151.589789 C228.739271,158.032448 226.126082,164.472394 223.512894,170.915052 C222.621048,173.052658 220.785852,175.900991 220.831936,178.380398 C220.88344,181.500001 223.911378,188.232918 225.058036,191.425764 C229.132333,203.079516 233.217473,214.73598 237.294481,226.384307 C241.940752,239.662965 246.595155,252.941623 251.244137,266.212143 C252.287786,269.255791 253.336856,272.296726 254.380505,275.337661 C255.275061,278.036795 256.0395,281.07773 257.492477,283.519159 C257.698496,283.874522 258.088847,284.457752 258.574076,284.457752 C261.989655,278.666141 264.440197,269.993645 266.722671,263.513009 C271.919229,249.412403 277.126631,235.311797 282.323189,221.211191 C299.739928,173.606049 317.164799,126.000906 334.578827,78.3984763 C341.775939,58.6147676 348.970339,38.8310588 356.16474,19.0419247 C358.15445,13.7033344 360.14416,8.36474418 362.13387,3.02615391 C362.665182,2.04686983 363.204627,1.07301113 363.735939,0.0937270465 C367.295188,0.950939711 368.363234,4.12208403 371.065879,6.43059029 C377.430782,11.8614123 385.00198,12.547725 394.226753,12.547725 C394.693006,12.6453821 395.167392,12.7430392 395.633646,12.8406964 C399.328434,14.7857011 390.252754,17.5038248 389.461208,17.7615311 C384.530305,19.3457469 375.552214,22.4083833 372.063444,26.2658403 C369.564108,29.0246545 367.896981,35.3154018 366.582254,38.8826001 C361.442622,51.9062647 356.30299,64.9380673 351.160647,77.9644446 C326.0697,141.102498 300.978753,204.240551 275.882384,267.373178 C268.731356,285.17933 261.580328,302.982769 254.426588,320.783495 C254.353397,320.854025 254.288339,320.924556 254.217859,320.98966 C251.897434,319.44071 247.340619,306.766983 245.909329,303.568712 C233.334037,274.30141 220.758745,245.034108 208.183453,215.76138 C207.852738,215.397879 207.524734,215.034377 207.185887,214.670876 C206.719633,214.478274 206.277777,214.871615 206.012121,215.202565 C204.095602,217.576176 201.761623,224.414888 200.63394,227.512789 C187.863472,258.947537 175.101137,290.387711 162.333379,321.819746 L161.918631,321.819746 L161.918631,321.613581 C160.406017,319.557356 159.636157,316.839232 158.657566,314.530726 C156.966042,310.526783 155.271807,306.530978 153.582993,302.529748 C146.502445,285.664903 139.424607,268.800058 132.34677,251.929787 C106.659452,190.541424 80.9721343,129.153062 55.2848164,67.7674117 C51.3379259,58.3597739 47.3910354,48.962987 43.4360125,39.558062 C41.1996219,34.1028257 39.597553,27.5570847 34.6991799,23.6399483 C29.071608,19.1395818 18.5700599,17.9107295 10.9094056,17.555366 C8.07122262,17.4197311 3.99963636,18.1711485 1.7252949,16.8744788 C0.941880496,16.4268835 0.345509672,15.5832344 0.397014425,14.6365027 C0.462073061,13.3127059 1.70631946,12.6453821 2.83400247,12.3849631 C6.44475674,11.5358885 10.6247741,12.6046916 14.2355283,12.897663 C23.2759679,13.6111027 32.1564716,14.0017313 41.4083517,14.0017313 C41.9586393,13.9284884 42.5143485,13.8660963 43.0673469,13.7928535 C43.4820957,13.7223233 43.8968445,13.6572186 44.3115933,13.5866884 C45.3498207,13.4483408 46.3853373,13.3127059 47.4235647,13.1689329 C49.1665939,12.3578361 51.785204,11.7176393 53.8508157,11.7176393 C56.5886999,9.81603777 59.8877149,8.50580449 62.7584272,6.7235617 C64.9351807,5.04982685 67.114645,3.38423009 69.2913985,1.71049524 C69.4675989,1.65624127 69.649221,1.6047 69.8227107,1.54773334 C71.4898382,4.36893957 72.389816,7.90901086 73.4090679,11.0693044 C74.8674657,15.3553677 76.3258634,19.6495691 77.7761288,23.9383451 C82.4169782,37.7676811 87.0605383,51.5970171 91.6986768,65.4236403 C108.798255,116.368114 125.897833,167.315301 142.989278,218.257063 C148.215655,233.903907 153.444743,249.556176 158.67112,265.200307 C160.224395,269.820032 161.788513,274.445183 163.344499,279.062195 C163.90834,280.508063 164.469471,281.96207 165.033313,283.407938 C165.288126,283.836544 165.664924,284.457752 166.272138,284.457752 C169.844941,278.129027 171.848205,270.576875 174.472236,263.754439 C180.00222,248.945819 185.529494,234.142624 191.059478,219.334004 C193.106114,213.854353 195.155461,208.380128 197.204808,202.897765 C197.950271,200.727606 199.357164,198.500481 199.357164,196.029213 C199.357164,192.882483 197.061137,189.431931 195.881949,186.721945 C192.284749,178.282741 188.687548,169.843536 185.090348,161.404332 C168.955806,123.602881 152.823975,85.8041427 136.689434,48.0026918 C134.33648,42.5420301 131.983526,37.0786557 129.630572,31.6125686 C128.47036,28.9514116 127.654416,25.5659641 125.529167,23.4392087 C121.341018,19.2480898 116.239336,18.2091263 110.061477,18.1196073 C108.079899,18.0870549 105.816401,17.2569692 105.77845,15.0271312 C105.74592,13.43749 107.31546,12.403952 108.657294,12.1272567 C111.002116,11.6281202 113.639702,12.5721392 115.876092,12.8651107 C121.717815,13.6192408 127.421289,14.0017313 133.501561,14.0017313 C134.122329,13.9284884 134.745807,13.8660963 135.366575,13.7928535 C135.781324,13.7223233 136.198783,13.6572186 136.610821,13.5866884 C137.098761,13.4483408 137.58399,13.3127059 138.063798,13.1689329 C145.550962,11.9590694 152.279109,5.88533793 157.353683,0.0937270465" id="Fill-1" fill="#E6E6E6" mask="url(#mask-2)"></path>
            </g>
        </g>
    </g>
</svg>