<?xml version="1.0" encoding="UTF-8"?>
<svg width="184px" height="46px" viewBox="0 0 184 46" version="1.1" xmlns="http://www.w3.org/2000/svg" xmlns:xlink="http://www.w3.org/1999/xlink">
    <!-- Generator: Sketch 46.2 (44496) - http://www.bohemiancoding.com/sketch -->
    <title>Group 7</title>
    <desc>Created with Sketch.</desc>
    <defs>
        <polygon id="path-1" points="56.7455129 0.384403101 0.612823276 0.384403101 0.612823276 45.9744571 56.7455129 45.9744571 56.7455129 0.384403101"></polygon>
    </defs>
    <g id="Concept-2---navy" stroke="none" stroke-width="1" fill="none" fill-rule="evenodd">
        <g id="ARTISTS" transform="translate(-624.000000, -32.000000)">
            <g id="Group-26" transform="translate(86.000000, 32.000000)">
                <g id="Group-7" transform="translate(538.000000, 0.000000)">
                    <g id="Group-2">
                        <g id="Group" transform="translate(66.000000, 0.000000)">
                            <mask id="mask-2" fill="white">
                                <use xlink:href="#path-1"></use>
                            </mask>
                            <g id="Clip-2"></g>
                            <path d="M22.8549829,0.38424934 C22.909914,0.434990549 22.9652292,0.486500564 23.0193921,0.536857371 C23.2122271,1.06348962 23.4054463,1.59012187 23.597129,2.11598531 C24.0988075,3.53597036 24.6001019,4.95710863 25.1017804,6.37709368 C26.4124443,10.1338652 27.7242605,13.8902523 29.0349244,17.6458706 C29.4885862,18.9386182 29.942248,20.2317502 30.3959098,21.5241135 C30.4373962,21.6313619 30.8499557,22.5616174 30.8499557,22.5616174 C31.1465069,22.3348196 31.2678931,21.8143378 31.385438,21.4752943 C31.7380727,20.54427 32.0918597,19.6128612 32.4444944,18.6818369 C34.2372459,13.9079348 36.0311499,9.13364832 37.8239015,4.35974621 C38.1796092,3.40527331 38.5349328,2.45156922 38.8902564,1.49632751 C38.9713086,1.28529021 39.0565862,0.884357774 39.2559516,0.748279076 C39.3781061,0.663710394 39.5840017,0.741744223 39.696937,0.795176254 C39.9539223,0.996603479 40.2120601,1.1976463 40.4694296,1.39830472 C41.2338555,1.88073061 42.0601269,2.03987349 43.0185403,2.14519994 C43.1460727,2.15903846 43.2893545,2.17287697 43.3792418,2.25936767 C43.7184317,2.5857259 42.7600184,2.79522559 42.6086697,2.83212829 C42.0962355,2.95321526 41.2050455,3.13273151 40.8285946,3.48753557 C40.4932459,3.8008241 40.2666071,4.64920174 40.1002772,5.08665247 C39.5463566,6.46089356 38.9932042,7.83590345 38.4392835,9.21014453 C36.7402605,13.4243557 35.0408534,17.6385669 33.3406781,21.8520093 C32.9707574,22.7649667 32.6004526,23.6775396 32.2301478,24.590497 C32.1037678,24.8934066 31.8437094,25.2970299 31.8502397,25.6483743 C31.8575382,26.0904379 32.2866154,27.0445264 32.449104,27.4969688 C33.0264568,29.1483646 33.6053461,30.8001447 34.1830831,32.4507716 C34.8414881,34.3324248 35.5010455,36.214078 36.1598347,38.0945779 C36.3077261,38.5258782 36.4563858,38.9567941 36.6042772,39.38771 C36.7310413,39.770191 36.839367,40.2011069 37.0452626,40.5470697 C37.0744568,40.5974265 37.129772,40.6800732 37.1985319,40.6800732 C37.6825403,39.8593726 38.0297971,38.6304359 38.3532376,37.7120968 C39.0896217,35.7139695 39.8275424,33.7158422 40.5639265,31.7177149 C43.031985,24.9718249 45.5011958,18.2259349 47.9688701,11.4804292 C48.9887449,8.67697743 50.0082355,5.87352562 51.0277261,3.069305 C51.3096802,2.3127997 51.5916342,1.55629439 51.8735883,0.799789091 C51.9488785,0.661019572 52.0253211,0.523018859 52.1006113,0.38424934 C52.6049787,0.505720719 52.7563273,0.955087944 53.1393086,1.28221498 C54.0412543,2.05178999 55.1141395,2.14904398 56.4213461,2.14904398 C56.4874171,2.16288249 56.5546405,2.176721 56.6207115,2.19055951 C57.1442856,2.46617653 55.8582063,2.85134844 55.7460392,2.88786673 C55.0473002,3.11235815 53.7750497,3.54634925 53.2806697,4.09297046 C52.9264985,4.48390841 52.6902564,5.3753392 52.5039516,5.88082928 C51.7756342,7.72634856 51.0473169,9.57302106 50.3186154,11.4189248 C46.7630747,20.3659069 43.207534,29.3128891 39.6512251,38.2591025 C38.6378806,40.7823244 37.6245361,43.305162 36.6108075,45.8276151 C36.6004359,45.8376096 36.5912167,45.8476041 36.5812292,45.8568297 C36.2524109,45.6373356 35.6066823,43.8414043 35.4038597,43.388193 C33.6218639,39.240868 31.8398681,35.0935429 30.0578722,30.9454491 C30.0110079,30.893939 29.9645278,30.842429 29.9165111,30.790919 C29.8504401,30.7636264 29.7878263,30.8193648 29.7501812,30.866262 C29.4785987,31.2026147 29.1478597,32.171695 28.9880601,32.6106833 C27.1784067,37.0651464 25.3699056,41.5203784 23.5606363,45.9744571 L23.5018639,45.9744571 L23.5018639,45.9452425 C23.2875173,45.6538649 23.1784234,45.268693 23.0397511,44.941566 C22.8000518,44.374187 22.5599683,43.8079612 22.320653,43.2409666 C21.317296,40.8511326 20.3143232,38.4612985 19.3113503,36.0706956 C15.6713002,27.3716534 12.0312501,18.6726113 8.3912,9.97395349 C7.83190146,8.64084354 7.27260292,7.3092712 6.71215198,5.97654565 C6.39524175,5.20351101 6.16821879,4.27594633 5.47408935,3.72086825 C4.67662797,3.08314351 3.18849436,2.90900891 2.10293278,2.8586521 C1.70074489,2.83943194 1.1237762,2.9459116 0.8014881,2.76216692 C0.690473486,2.69874041 0.605964092,2.57919104 0.61326263,2.44503436 C0.622481837,2.25744565 0.798799165,2.16288249 0.958598747,2.12597979 C1.47026472,2.00566162 2.06259875,2.15711644 2.57426472,2.19863198 C3.85535031,2.29972999 5.11377203,2.35508404 6.42482004,2.35508404 C6.50279916,2.34470515 6.58154656,2.33586388 6.65990981,2.325485 C6.71868225,2.31549052 6.7774547,2.30626484 6.83622714,2.29627036 C6.98335031,2.2766658 7.13008935,2.25744565 7.27721253,2.23707229 C7.52421044,2.12213576 7.89528351,2.03141663 8.18799332,2.03141663 C8.57596827,1.76195005 9.04345887,1.57628336 9.45025637,1.32373052 C9.75871566,1.0865538 10.0675591,0.850530301 10.3760184,0.613353588 C10.4009871,0.605665526 10.426724,0.598361867 10.4513086,0.590289402 C10.6875507,0.990068626 10.8150831,1.49171467 10.9595173,1.93954429 C11.1661812,2.54690118 11.3728451,3.15541129 11.5783566,3.7631526 C12.2359933,5.7228396 12.8940142,7.68252661 13.5512668,9.64182922 C15.9743816,16.8609194 18.3974965,24.0803941 20.8194589,31.2990999 C21.5600685,33.516337 22.3010622,35.7343429 23.0416718,37.9511956 C23.2617804,38.6058341 23.4834255,39.2612413 23.7039182,39.9154954 C23.783818,40.1203823 23.8633336,40.3264223 23.9432334,40.5313092 C23.979342,40.5920449 24.0327365,40.6800732 24.1187825,40.6800732 C24.6250706,39.7832608 24.9089453,38.7130825 25.2807866,37.7463087 C26.0644192,35.6478522 26.8476676,33.5501645 27.6313002,31.4517079 C27.9213211,30.6752137 28.2117261,29.8994882 28.5021311,29.1226096 C28.6077678,28.8150871 28.8071332,28.4994921 28.8071332,28.1493009 C28.8071332,27.7033933 28.481772,27.2144326 28.3146739,26.8304139 C27.8049286,25.6345358 27.2951833,24.4386578 26.785438,23.2427797 C24.4990747,17.8861225 22.2130956,12.5298497 19.9267324,7.1731925 C19.5933044,6.39938906 19.2598764,5.62520122 18.9264484,4.85062897 C18.7620392,4.47352953 18.646415,3.99379446 18.3452543,3.69242242 C17.7517678,3.09851963 17.0288284,2.95129325 16.1533879,2.93860794 C15.8725862,2.93399511 15.5518347,2.81636776 15.5464568,2.50038841 C15.5418472,2.27512819 15.7642605,2.12867061 15.9544067,2.08946149 C16.2866823,2.01873132 16.6604443,2.1525036 16.9773545,2.19401914 C17.8051624,2.3008832 18.6133795,2.35508404 19.4749912,2.35508404 C19.5629578,2.34470515 19.6513086,2.33586388 19.7392752,2.325485 C19.7980476,2.31549052 19.8572042,2.30626484 19.9155925,2.29627036 C19.9847365,2.2766658 20.0534965,2.25744565 20.1214881,2.23707229 C21.1824651,2.0656285 22.1358848,1.20494996 22.8549829,0.38424934" id="Fill-1" fill="#E6E6E6" mask="url(#mask-2)"></path>
                        </g>
                        <g id="Group-6" transform="translate(0.000000, 14.069153)" fill="#434558">
                            <path d="M0.0786705637,0.757043467 C-0.0434839248,0.635187684 -0.023508977,0.34957618 0.139363674,0.268467126 C0.689443006,0.308829451 1.60560167,0.329587219 2.23634906,0.329587219 C2.80640334,0.329587219 3.84471649,0.308829451 4.55690021,0.268467126 C4.74013194,0.329587219 4.71977286,0.614429916 4.59800251,0.757043467 L4.1293595,0.797790195 C3.70220292,0.838536924 3.45789395,0.96077711 3.45789395,1.14413739 C3.45789395,1.38861776 3.88505052,2.42765934 4.51656618,3.87378381 C5.65629061,6.42006995 6.85709228,8.96635609 8.03830313,11.4722799 C8.52653695,10.4539961 9.07623215,9.31308768 9.60556827,8.17217928 C9.78841587,7.78508536 9.93092944,7.43873816 9.93092944,7.33687134 C9.93092944,7.23538892 9.86985219,7.05164424 9.76844092,6.80716387 C9.05587307,5.17767913 8.30258706,3.54819438 7.5293261,1.91832523 C7.22393987,1.28675094 6.91855365,0.859294691 6.22634489,0.797790195 L5.7373428,0.757043467 C5.59521336,0.594056552 5.61557244,0.34957618 5.77844509,0.268467126 C6.36885846,0.308829451 7.14250355,0.329587219 7.95648267,0.329587219 C8.97443674,0.329587219 9.72772276,0.308829451 10.1959816,0.268467126 C10.3384952,0.329587219 10.3588543,0.594056552 10.2363157,0.757043467 L9.70697954,0.797790195 C8.9133595,0.859294691 8.89300042,1.00152384 9.27982296,1.91832523 C9.70697954,2.91623568 10.277418,4.19975764 10.8470881,5.46290623 C11.2339106,4.66834502 11.6003741,3.89415717 12.0482739,2.7943799 C12.7808167,1.06264393 12.6794054,0.838536924 12.0279148,0.797790195 L11.4175265,0.757043467 C11.2746288,0.553694226 11.315347,0.329587219 11.4578605,0.268467126 C12.0075557,0.308829451 12.6183282,0.329587219 13.3712301,0.329587219 C14.0434639,0.329587219 14.857443,0.308829451 15.3257019,0.268467126 C15.4682154,0.329587219 15.4885745,0.594056552 15.36642,0.757043467 L14.7760067,0.797790195 C13.9209253,0.859294691 13.5544618,1.77571168 13.1069461,2.61063522 C12.6794054,3.3644497 11.824324,5.1369324 11.5189378,5.85000015 C11.4175265,6.05334939 11.3360902,6.25746744 11.3360902,6.33896089 C11.3360902,6.42006995 11.3764242,6.58305686 11.4782196,6.82753723 C12.1704284,8.39628629 12.8829962,9.92428861 13.5544618,11.4722799 C14.1859775,10.0461444 14.7963658,8.6203933 15.3867791,7.17388443 C15.7939608,6.19596294 16.8729921,3.48707429 17.0155056,3.11996933 C17.2797896,2.38691261 17.6262781,1.51085795 17.6262781,1.26637758 C17.6262781,0.981150474 17.381585,0.81816356 16.9544284,0.797790195 L16.364015,0.757043467 C16.2011424,0.573683188 16.2211173,0.34957618 16.38399,0.268467126 C17.1580192,0.308829451 17.7077144,0.329587219 18.3384618,0.329587219 C19.1121069,0.329587219 19.7025203,0.308829451 20.2318564,0.268467126 C20.394729,0.329587219 20.414704,0.594056552 20.2721904,0.757043467 L19.885752,0.797790195 C18.8677979,0.899657017 18.6845662,1.51085795 17.4630213,4.34237119 L15.9771925,7.78508536 C15.0813929,9.86278412 14.2674138,11.8593738 13.4326914,14.0389394 C13.3712301,14.0796861 13.2901779,14.1000595 13.1883825,14.1000595 C13.0862029,14.1000595 12.9847916,14.0796861 12.9033553,14.0389394 C12.2514806,12.2260944 11.071038,9.67980824 10.4402906,8.25367274 C9.70697954,9.74054393 8.48581879,12.3479502 7.89578956,14.0389394 C7.83432818,14.0796861 7.75327599,14.1000595 7.65109645,14.1000595 C7.54930104,14.1000595 7.44788977,14.0796861 7.34571023,14.0389394 C6.99998998,13.1832581 6.2059858,11.3500397 5.94131775,10.7595966 C4.63833653,7.92769891 3.37645762,5.09618567 2.05311733,2.26467243 C1.66629478,1.42936449 1.4219858,0.879283653 0.566904384,0.797790195 L0.0786705637,0.757043467 Z" id="Fill-4"></path>
                        </g>
                        <path d="M26.7688501,17.494877 C26.7688501,15.3356848 26.7281319,14.9889532 25.5273303,14.8874708 L25.0179691,14.8467241 C24.8958146,14.7648462 24.9365328,14.3985101 25.0590714,14.33739 C26.0766413,14.3781367 26.7688501,14.3985101 27.6239315,14.3985101 C28.4382948,14.3985101 29.1301194,14.3781367 30.1480735,14.33739 C30.270228,14.3985101 30.3109461,14.7648462 30.1887916,14.8467241 L29.6798146,14.8874708 C28.4786288,14.9889532 28.4382948,15.3356848 28.4382948,17.494877 L28.4382948,24.7470259 C28.4382948,26.9062182 28.4786288,27.1918297 29.6798146,27.3340588 L30.1887916,27.3951789 C30.3109461,27.4766724 30.270228,27.8433929 30.1480735,27.904513 C29.1301194,27.8637663 28.4382948,27.8433929 27.6239315,27.8433929 C26.7688501,27.8433929 26.0766413,27.8637663 25.0590714,27.904513 C24.9365328,27.8433929 24.8958146,27.5174191 25.0179691,27.3951789 L25.5273303,27.3340588 C26.7281319,27.1918297 26.7688501,26.9062182 26.7688501,24.7470259 L26.7688501,17.494877 Z" id="Fill-7" fill="#434558"></path>
                        <path d="M38.1292944,17.4543225 C38.1292944,15.3155037 38.0885762,14.9891454 36.8059541,14.8872786 L36.296977,14.8469163 C36.1748225,14.7650384 36.2159248,14.3987023 36.3376952,14.3375822 C37.4778038,14.3779445 38.1696284,14.3987023 38.9843758,14.3987023 C39.7779958,14.3987023 40.4702046,14.3779445 41.4877745,14.3375822 C41.6103132,14.3987023 41.6510313,14.7650384 41.5288768,14.8469163 L41.0402589,14.8872786 C39.8390731,14.9891454 39.7983549,15.3155037 39.7983549,17.4543225 L39.7983549,24.5431001 C39.7983549,25.826622 39.8594322,26.3563295 40.2258956,26.7434234 C40.4498455,26.9675305 40.8366681,27.2120108 42.4446514,27.2120108 C44.1747891,27.2120108 44.602714,27.1305174 44.9280752,26.9467727 C45.3356409,26.7026767 45.864977,25.9692356 46.2717745,24.930194 C46.393929,24.8287116 46.7803674,24.9102051 46.7803674,25.0528186 C46.7803674,25.2769256 46.2106973,27.3546244 45.9256701,27.9047052 C44.8877411,27.8635741 42.9540125,27.8432007 40.8570271,27.8432007 L38.9843758,27.8432007 C38.1292944,27.8432007 37.4778038,27.8635741 36.3376952,27.9047052 C36.2159248,27.8432007 36.1748225,27.5176113 36.296977,27.3949867 L36.9077495,27.3338666 C38.0885762,27.2120108 38.1292944,26.9267837 38.1292944,24.7875805 L38.1292944,17.4543225 Z" id="Fill-9" fill="#434558"></path>
                        <path d="M55.5357328,24.3191468 C55.5357328,25.3989352 55.59681,26.0508828 55.9432985,26.5394592 C56.3908142,27.1710335 57.1644593,27.3747671 58.4466973,27.3747671 C62.3959749,27.3747671 64.167215,24.7877342 64.167215,20.9986729 C64.167215,18.7579872 63.0881837,14.9689258 57.7544885,14.9689258 C56.5536868,14.9689258 55.9021962,15.1319127 55.7393236,15.2541529 C55.5764509,15.3760087 55.5357328,15.8857272 55.5357328,16.8021442 L55.5357328,24.3191468 Z M53.8662881,17.0466246 C53.8662881,15.6208735 53.7648768,15.1930328 52.9097954,15.0704082 L52.4618956,15.0096726 C52.299023,14.9078057 52.2786639,14.5818319 52.4822547,14.5003384 C54.2127766,14.3984716 55.8618622,14.3373515 57.592,14.3373515 C59.3017787,14.3373515 60.7468894,14.4595917 62.0706138,14.9485525 C64.8183215,15.9468473 66.202739,18.2690264 66.202739,20.9579261 C66.202739,23.544959 64.9608351,25.7656557 62.6402839,27.0284199 C61.3173278,27.7414877 59.6478831,28.0063414 58.0802338,28.0063414 C56.7772526,28.0063414 55.4746555,27.8433545 54.7620877,27.8433545 C53.9073904,27.8433545 53.1744635,27.8637278 52.2175866,27.9044746 C52.0954322,27.8433545 52.054714,27.5173806 52.1768685,27.3951405 L52.6455115,27.3340204 C53.8259541,27.1710335 53.8662881,26.9265531 53.8662881,24.7877342 L53.8662881,17.0466246 Z" id="Fill-11" fill="#434558"></path>
                        <path d="M74.2254848,17.4543225 C74.2254848,15.3354926 74.1851507,15.0298922 72.9839649,14.8872786 L72.6582196,14.8469163 C72.5360651,14.7650384 72.5767833,14.3987023 72.6985537,14.3375822 C73.5743783,14.3779445 74.2662029,14.3987023 75.1009253,14.3987023 L78.9280484,14.3987023 C80.2310296,14.3987023 81.4318313,14.3987023 81.6761403,14.3375822 C81.7982948,14.683545 81.9204493,16.1504272 82.0018856,17.0464708 C81.9204493,17.1690954 81.5950881,17.2094577 81.4929086,17.087602 C81.1875223,16.1300538 81.0042906,15.4169861 79.9460025,15.1525167 C79.5180777,15.0502655 78.8669712,15.0298922 77.9711716,15.0298922 L76.5057019,15.0298922 C75.8949294,15.0298922 75.8949294,15.0706389 75.8949294,15.8448267 L75.8949294,19.9191152 C75.8949294,20.4895694 75.9560067,20.4895694 76.5667791,20.4895694 L77.7472217,20.4895694 C78.6026873,20.4895694 79.2334347,20.4488227 79.4777436,20.3673292 C79.7220526,20.2854514 79.8645662,20.1635956 79.9659775,19.6542615 L80.1288501,18.8189535 C80.2310296,18.6967133 80.5767499,18.6967133 80.6581862,18.8397113 C80.6581862,19.3282876 80.5767499,20.1224644 80.5767499,20.8966523 C80.5767499,21.6300934 80.6581862,22.4042812 80.6581862,22.8524953 C80.5767499,22.9951088 80.2310296,22.9951088 80.1288501,22.8728686 L79.9460025,22.0783074 C79.8645662,21.7115869 79.7220526,21.4059864 79.314871,21.304504 C79.0298438,21.2230105 78.5412259,21.2022527 77.7472217,21.2022527 L76.5667791,21.2022527 C75.9560067,21.2022527 75.8949294,21.2230105 75.8949294,21.752718 L75.8949294,24.6245936 C75.8949294,25.7043819 75.9560067,26.3970763 76.281752,26.7434234 C76.5256768,26.9879038 76.9536017,27.2120108 78.7448167,27.2120108 C80.312466,27.2120108 80.9028793,27.1305174 81.350395,26.9064104 C81.7168585,26.7026767 82.2665537,25.989609 82.7958898,24.930194 C82.9384033,24.8287116 83.2234305,24.8894473 83.3048668,25.0728076 C83.1623532,25.7858753 82.6529921,27.3546244 82.3887081,27.9047052 C80.5563908,27.8635741 78.7448167,27.8432007 76.9332426,27.8432007 L75.1009253,27.8432007 C74.2254848,27.8432007 73.533276,27.8635741 72.3324743,27.9047052 C72.2103198,27.8432007 72.1696017,27.5176113 72.2917562,27.3949867 L72.9636058,27.3338666 C74.1236894,27.2323842 74.2254848,26.9267837 74.2254848,24.7875805 L74.2254848,17.4543225 Z" id="Fill-13" fill="#434558"></path>
                        <path d="M101.54622,24.3803438 C101.54622,24.9915448 101.54622,27.4155907 101.607297,27.9449138 C101.566579,28.0675384 101.444424,28.1690208 101.220474,28.1690208 C100.976549,27.823058 100.385752,27.1099902 98.614896,25.0930272 L93.8919733,19.7152278 C93.3426622,19.0840379 91.9582447,17.413422 91.530704,16.965208 L91.4899858,16.965208 C91.4085495,17.2096884 91.3881904,17.6778914 91.3881904,18.2890923 L91.3881904,22.7301013 C91.3881904,23.6876494 91.4085495,26.3358024 91.7546539,26.9470033 C91.8768084,27.1711103 92.28399,27.2933505 92.792967,27.3340972 L93.4237144,27.3952173 C93.546253,27.5582043 93.5255098,27.8023002 93.3829962,27.9045515 C92.4672217,27.8638047 91.7546539,27.8434314 91.0013678,27.8434314 C90.1462864,27.8434314 89.5969754,27.8638047 88.8844075,27.9045515 C88.7418939,27.8023002 88.7215349,27.5174575 88.8436894,27.3952173 L89.3930004,27.3340972 C89.8616434,27.2729772 90.1873887,27.150737 90.2888,26.92663 C90.5742113,26.1931888 90.5538522,23.7080228 90.5538522,22.7301013 L90.5538522,16.8433522 C90.5538522,16.2725136 90.533109,15.8450574 90.1059524,15.3760856 C89.8209253,15.0912429 89.3323073,14.9486293 88.8436894,14.8875092 L88.497585,14.8467625 C88.3754305,14.7245223 88.3754305,14.4189219 88.5383031,14.3374284 C89.3930004,14.3985485 90.4724159,14.3985485 90.8384952,14.3985485 C91.1646246,14.3985485 91.5103449,14.3777907 91.7750129,14.3374284 C92.1821946,15.3760856 94.584182,18.0649853 95.2560317,18.8187998 L97.2308626,21.0394965 C98.6352551,22.6082455 99.6328501,23.7487695 100.589727,24.7263066 L100.630061,24.7263066 C100.711497,24.6248242 100.711497,24.2988504 100.711497,23.8710097 L100.711497,19.5114941 C100.711497,18.5543304 100.691138,15.9057931 100.3047,15.2945921 C100.182161,15.1116163 99.8568,14.9889917 99.0420526,14.8875092 L98.6963324,14.8467625 C98.5538188,14.7245223 98.5741779,14.3985485 98.7370505,14.3374284 C99.6735683,14.3777907 100.365777,14.3985485 101.139038,14.3985485 C102.014478,14.3985485 102.543815,14.3777907 103.235639,14.3374284 C103.398512,14.4392952 103.398512,14.7245223 103.276742,14.8467625 L102.991714,14.8875092 C102.33984,14.9889917 101.933042,15.152363 101.851606,15.3153499 C101.505501,16.0484066 101.54622,18.5743194 101.54622,19.5114941 L101.54622,24.3803438 Z" id="Fill-15" fill="#434558"></path>
                        <path d="M112.968586,28.1691745 C111.258808,28.1691745 110.179392,27.6394671 109.79257,27.4153601 C109.548645,26.9675305 109.283977,25.5210216 109.243258,24.5634735 C109.345054,24.4208599 109.65044,24.3804976 109.731876,24.5023534 C110.037263,25.5413949 110.871601,27.5376003 113.23287,27.5376003 C114.943417,27.5376003 115.777755,26.4170652 115.777755,25.1950478 C115.777755,24.2990041 115.594524,23.3007093 114.108695,22.3431612 L112.174582,21.080397 C111.156628,20.4080759 109.976185,19.2467942 109.976185,17.5761783 C109.976185,15.6410931 111.482373,14.072344 114.129054,14.072344 C114.759801,14.072344 115.492728,14.1945842 116.022064,14.3375822 C116.286732,14.4186912 116.571759,14.459438 116.734632,14.459438 C116.91748,14.9483987 117.101096,16.0893071 117.101096,16.9449884 C117.019659,17.0668442 116.69353,17.1279643 116.592119,17.0061085 C116.327451,16.028187 115.777755,14.7043027 113.823668,14.7043027 C111.828478,14.7043027 111.400937,16.028187 111.400937,16.9653618 C111.400937,18.1470169 112.378173,19.0023138 113.131459,19.4709012 L114.759801,20.489185 C116.042423,21.2837462 117.304302,22.4654013 117.304302,24.4004865 C117.304302,26.6411722 115.614883,28.1691745 112.968586,28.1691745" id="Fill-17" fill="#434558"></path>
                        <path d="M130.334499,24.7876573 C130.334499,26.9264762 130.374833,27.2320767 131.556043,27.3339435 L132.20715,27.3950636 C132.329304,27.476557 132.288586,27.8432776 132.166816,27.9043977 C131.006348,27.863651 130.314139,27.8432776 129.499776,27.8432776 C128.685413,27.8432776 127.973229,27.863651 126.670248,27.9043977 C126.548094,27.8432776 126.507375,27.4969304 126.670248,27.3950636 L127.403175,27.3339435 C128.563643,27.2320767 128.665054,26.9264762 128.665054,24.7876573 L128.665054,15.6819167 C128.665054,15.0503424 128.665054,15.029969 128.054281,15.029969 L126.934532,15.029969 C126.059476,15.029969 124.939726,15.0707158 124.431133,15.5393031 C123.942131,15.9871328 123.738924,16.4353468 123.514975,16.9450653 C123.352102,17.0669211 123.067075,16.9650542 122.985638,16.8024517 C123.311384,15.8856503 123.61677,14.581755 123.759284,13.7668204 C123.820361,13.7264581 124.084645,13.7060848 124.146106,13.7668204 C124.268261,14.4187681 124.939726,14.3987791 125.876628,14.3987791 L134.120519,14.3987791 C135.220294,14.3987791 135.403142,14.357648 135.708528,13.8279405 C135.810323,13.7875782 136.034273,13.8079516 136.074991,13.8890606 C135.851041,14.7243686 135.708528,16.3742267 135.769605,16.9854276 C135.688553,17.1487989 135.342064,17.1487989 135.240269,17.0265587 C135.179192,16.5168402 135.036678,15.7630258 134.731292,15.5393031 C134.263417,15.192956 133.489772,15.029969 132.370023,15.029969 L130.924912,15.029969 C130.314139,15.029969 130.334499,15.0503424 130.334499,15.7226634 L130.334499,24.7876573 Z" id="Fill-19" fill="#434558"></path>
                        <path d="M143.364656,17.4543225 C143.364656,15.3354926 143.323938,15.0298922 142.123137,14.8872786 L141.797007,14.8469163 C141.675237,14.7650384 141.715571,14.3987023 141.837725,14.3375822 C142.713166,14.3779445 143.40499,14.3987023 144.239713,14.3987023 L148.066836,14.3987023 C149.369817,14.3987023 150.571003,14.3987023 150.815312,14.3375822 C150.937466,14.683545 151.059237,16.1504272 151.140673,17.0464708 C151.059237,17.1690954 150.733876,17.2094577 150.63208,17.087602 C150.326694,16.1300538 150.143078,15.4169861 149.08479,15.1525167 C148.657249,15.0502655 148.005759,15.0298922 147.110343,15.0298922 L145.644873,15.0298922 C145.034101,15.0298922 145.034101,15.0706389 145.034101,15.8448267 L145.034101,19.9191152 C145.034101,20.4895694 145.094794,20.4895694 145.705567,20.4895694 L146.886393,20.4895694 C147.741475,20.4895694 148.372222,20.4488227 148.616531,20.3673292 C148.861224,20.2854514 149.003354,20.1635956 149.105149,19.6542615 L149.268022,18.8189535 C149.369817,18.6967133 149.715922,18.6967133 149.797358,18.8397113 C149.797358,19.3282876 149.715922,20.1224644 149.715922,20.8966523 C149.715922,21.6300934 149.797358,22.4042812 149.797358,22.8524953 C149.715922,22.9951088 149.369817,22.9951088 149.268022,22.8728686 L149.08479,22.0783074 C149.003354,21.7115869 148.861224,21.4059864 148.453658,21.304504 C148.169015,21.2230105 147.680013,21.2022527 146.886393,21.2022527 L145.705567,21.2022527 C145.094794,21.2022527 145.034101,21.2230105 145.034101,21.752718 L145.034101,24.6245936 C145.034101,25.7043819 145.094794,26.3970763 145.420924,26.7434234 C145.664848,26.9879038 146.092389,27.2120108 147.883988,27.2120108 C149.451253,27.2120108 150.041667,27.1305174 150.489567,26.9064104 C150.85603,26.7026767 151.405725,25.989609 151.935061,24.930194 C152.077575,24.8287116 152.362218,24.8894473 152.443654,25.0728076 C152.301141,25.7858753 151.792164,27.3546244 151.527496,27.9047052 C149.695178,27.8635741 147.883988,27.8432007 146.07203,27.8432007 L144.239713,27.8432007 C143.364656,27.8432007 142.672448,27.8635741 141.471262,27.9047052 C141.349491,27.8432007 141.308389,27.5176113 141.430928,27.3949867 L142.102393,27.3338666 C143.262861,27.2323842 143.364656,26.9267837 143.364656,24.7875805 L143.364656,17.4543225 Z" id="Fill-21" fill="#434558"></path>
                        <path d="M159.733473,17.494877 C159.733473,15.3356848 159.692755,14.9889532 158.491569,14.8874708 L157.982592,14.8467241 C157.860438,14.7648462 157.901156,14.3985101 158.02331,14.33739 C159.04088,14.3781367 159.733473,14.3985101 160.588554,14.3985101 C161.402534,14.3985101 162.094358,14.3781367 163.112696,14.33739 C163.234467,14.3985101 163.275569,14.7648462 163.15303,14.8467241 L162.644053,14.8874708 C161.443252,14.9889532 161.402534,15.3356848 161.402534,17.494877 L161.402534,24.7470259 C161.402534,26.9062182 161.443252,27.1918297 162.644053,27.3340588 L163.15303,27.3951789 C163.275569,27.4766724 163.234467,27.8433929 163.112696,27.904513 C162.094358,27.8637663 161.402534,27.8433929 160.588554,27.8433929 C159.733473,27.8433929 159.04088,27.8637663 158.02331,27.904513 C157.901156,27.8433929 157.860438,27.5174191 157.982592,27.3951789 L158.491569,27.3340588 C159.692755,27.1918297 159.733473,26.9062182 159.733473,24.7470259 L159.733473,17.494877 Z" id="Fill-23" fill="#434558"></path>
                        <path d="M182.04549,24.3803438 C182.04549,24.9915448 182.04549,27.4155907 182.106567,27.9449138 C182.065849,28.0675384 181.943694,28.1690208 181.719744,28.1690208 C181.47582,27.823058 180.885022,27.1099902 179.114166,25.0930272 L174.391243,19.7152278 C173.841932,19.0840379 172.457515,17.413422 172.029974,16.965208 L171.989256,16.965208 C171.90782,17.2096884 171.887845,17.6778914 171.887845,18.2890923 L171.887845,22.7301013 C171.887845,23.6876494 171.90782,26.3358024 172.253924,26.9470033 C172.376078,27.1711103 172.78326,27.2933505 173.292237,27.3340972 L173.922985,27.3952173 C174.045523,27.5582043 174.02478,27.8023002 173.882651,27.9045515 C172.966492,27.8638047 172.253924,27.8434314 171.500638,27.8434314 C170.645557,27.8434314 170.096246,27.8638047 169.383678,27.9045515 C169.241164,27.8023002 169.220805,27.5174575 169.342959,27.3952173 L169.892271,27.3340972 C170.360914,27.2729772 170.686659,27.150737 170.78807,26.92663 C171.073481,26.1931888 171.053122,23.7080228 171.053122,22.7301013 L171.053122,16.8433522 C171.053122,16.2725136 171.032379,15.8450574 170.605223,15.3760856 C170.320195,15.0912429 169.831577,14.9486293 169.342959,14.8875092 L168.996855,14.8467625 C168.874701,14.7245223 168.874701,14.4189219 169.037573,14.3374284 C169.892271,14.3985485 170.971686,14.3985485 171.337765,14.3985485 C171.663895,14.3985485 172.009615,14.3777907 172.274283,14.3374284 C172.681465,15.3760856 175.083452,18.0649853 175.755302,18.8187998 L177.730133,21.0394965 C179.134525,22.6082455 180.13212,23.7487695 181.088997,24.7263066 L181.129331,24.7263066 C181.210767,24.6248242 181.210767,24.2988504 181.210767,23.8710097 L181.210767,19.5114941 C181.210767,18.5543304 181.190408,15.9057931 180.80397,15.2945921 C180.681431,15.1116163 180.35607,14.9889917 179.541323,14.8875092 L179.195603,14.8467625 C179.053089,14.7245223 179.073448,14.3985485 179.236321,14.3374284 C180.172838,14.3777907 180.865047,14.3985485 181.638308,14.3985485 C182.513749,14.3985485 183.043085,14.3777907 183.734909,14.3374284 C183.897782,14.4392952 183.897782,14.7245223 183.776012,14.8467625 L183.490985,14.8875092 C182.83911,14.9889917 182.432312,15.152363 182.350876,15.3153499 C182.005156,16.0484066 182.04549,18.5743194 182.04549,19.5114941 L182.04549,24.3803438 Z" id="Fill-25" fill="#434558"></path>
                    </g>
                </g>
            </g>
        </g>
    </g>
</svg>